<?xml version="1.0" encoding="UTF-8"?>
<svg id="Layer_1" xmlns="http://www.w3.org/2000/svg" viewBox="0 0 2650 765.29">
<defs>
<style>
.cls-1{fill:#65399a;}
.cls-text{
  fill:#65399a;
  font-family:'Montserrat', sans-serif;
  font-size:600px;
  font-weight:600;
}
</style>
</defs>
<path class="cls-1" d="m6.29,555.36c-.41.44-.8.91-1.18,1.4-4.64,5.96-5.79,14.06-4.76,21.55,5.51,40.13,41.95,68.19,76.32,83.81,29.66,13.48,62.4,22.43,93.07,33.45,31.05,11.16,62.11,22.32,93.16,33.48,9.94,3.57,19.87,7.14,29.81,10.71,46.42,16.68,96.31,33.58,144.1,21.34,27.62-7.07,52.24-23.48,80.03-29.81,7.73-1.76,15.72-2.75,23-5.9,7.28-3.15,13.96-9.03,15.5-16.81,2.7-13.69-10.63-24.71-22.29-32.37-30.51-20.04-60.5-44.92-93.3-62.9-30.18-16.54-81.3-17.17-97.58-50.84-17.15-35.46,2.44-63.6,35.85-77.59,38.56-16.14,76.33-14.18,113.45-37.68,26.84-17,50.24-39.12,69.14-64.63,5.01-6.76,9.7-13.75,14.09-20.93,33.64-55.1,80.98-98.68,141.26-122.64,20.61-8.19,41.82-13.53,63.26-19.05,2.25-.58,4.56-1.18,6.44-2.54,12.43-8.95-.98-40.63-6.3-50.07-8.88-15.74-22.27-28.75-37-39.03-19.77-13.81-42.12-23.74-64.81-31.67-43.25-15.13-87.08-28.67-130.58-43.05-29.56-9.77-59.09-19.62-88.54-29.74-13.16-4.53-26.67-8.65-39.65-13.59-16.92-6.44-31.23-12.33-49.95-9.58-4.19.62-8.33,1.59-12.34,2.93-17.93,5.98-32.89,18.52-49.98,26.59-14.58,6.89-30.48,10.42-46.13,14.29-7,1.73-14.22,3.66-19.81,8.22-6.69,5.46-10.22,14.72-8.34,23.15,1.31,5.85,4.93,10.91,8.89,15.41,12.76,14.5,28.33,23.78,45.13,32.75,21.11,11.27,33.51,25.85,54.93,36.43,17.52,8.66,41.97,12.75,62.74,19.45,14.15,4.56,32.66,14.32,41.8,26.42,3.92,5.19,6.07,11.52,7.47,17.87,4.81,21.74-.68,51.59-20.98,63.94-28.15,17.13-67.42,10.98-97.99,21.16-31.81,10.59-57.75,32.37-79.86,57.69-30.03,34.39-58.83,69.72-90.57,102.61-21.8,22.59-45.12,44.54-73.38,58.19-15.28,7.38-31.64,12.14-48.13,16.01-12.07,2.83-26.98,1.71-35.98,11.55Z"/>
<path class="cls-1" d="m2.17,472.47c-2.31-2.04-1.44-5.01-1.32-10.6.25-11.74.29-23.49.43-35.23.44-35.86.88-71.71,1.32-107.57.35-28.81.1-57.62.34-86.43.2-24.15-3.38-52.55,6.73-75.14,11.83-26.44,38.69-40.64,64.57-50.27,13.84-5.15,28.07-9.18,42.2-13.42,18.37-5.52,35.69-14.72,54.48-5.33,16.74,8.37,29.4,23.64,42.67,36.38,13.03,12.51,28.49,22.22,44.37,30.68,25.94,13.82,64.91,23.64,80.27,50.81,16.47,29.14,8.24,62.72-49.41,67.78-57.65,5.07-126.7,89.32-172.31,150.14-15.13,20.18-34.24,39.06-58.77,46.97-14.13,4.56-36.02,7.45-50.62,3.46-2.41-.66-3.96-1.36-4.94-2.22Z"/>
<path class="cls-1" d="m789.65,291.32c.05.06.11.12.16.19,3.22,3.83,1.16,17.02,1.15,21.53,0,19.71-1.34,39.4-1.34,59.1v115.34c0,24.66,0,49.31,0,73.97,0,26.69-5.85,46.05-22.97,66.82-32.42,39.32-97.29,67.65-147.82,50.84-30.5-10.15-55.64-32.34-79.82-52.68-25.83-21.73-54.4-40.65-82.63-59.14-18.66-12.22-23.19-29.88-6.49-45.93,18.44-17.72,43.55-21.47,66.84-29.18,24.36-8.06,47.19-21.14,67.82-36.24,21.81-15.97,42.57-35.28,59.6-56.85,17.54-22.21,26.31-47.4,40.76-71.06,10.9-17.85,28.95-27.52,48.37-33.61,13.06-4.1,45.27-15.48,56.35-3.09Z"/>
<text class="cls-text" x="930" y="540">atabai</text>
</svg>